<svg width="100" height="100" viewBox="0 0 100 100" fill="none" xmlns="http://www.w3.org/2000/svg">
<rect width="100" height="100" rx="50" fill="white"/>
<path d="M54.8896 69.1596C52.8836 66.1246 48.6209 56.7666 47.1164 56.2608C47.1164 56.2608 38.0896 60.8133 33.3254 52.2141C33.3254 52.2141 41.0985 41.3387 43.3552 38.3037C45.1104 35.5216 50.8776 30.4633 56.1433 37.7979C57.397 39.5683 59.1522 42.3504 60.9075 45.3854C60.1552 46.65 59.403 47.9146 58.6507 48.9262L57.6478 49.9379L58.1493 51.4554C58.1493 51.7083 61.6597 59.2958 69.1821 60.8133C69.4328 60.8133 69.9343 60.8133 70.1851 61.0662C72.4418 64.6071 73.9463 67.1362 73.9463 67.1362C72.6925 69.1596 71.4388 71.1829 69.9343 72.9533C68.4299 74.9767 66.1731 76.4942 63.6657 77C61.9105 76.7471 58.4 76.4942 54.8896 69.1596ZM36.8358 76.2412H36.5851C34.8298 75.9883 32.0716 75.4825 26.5552 65.1129C24.8 62.3308 11.5104 41.0858 8 36.0275H22.794C23.0448 36.0275 23.0448 36.0275 23.2955 36.0275C26.0537 36.2804 28.5612 37.7979 29.8149 40.327C30.5672 41.5916 31.8209 43.615 33.5761 46.397L34.0776 46.9029L30.5672 51.9612L31.3194 53.2258C33.3254 57.5254 37.8388 60.0546 42.3522 59.8016C44.8597 63.5954 46.6149 66.6304 46.8657 66.8833C47.1164 67.3892 46.8657 67.3892 46.8657 67.6421C45.8627 68.4008 43.3552 73.7121 41.3493 75.2296C40.3463 75.9883 38.8418 76.4942 37.5881 76.7471C37.3373 76.4942 37.0866 76.4942 36.8358 76.2412ZM69.4328 58.5371C65.1702 57.2725 61.9104 54.4904 60.1552 50.4437C61.9104 47.6616 63.6657 44.6266 65.1701 41.8445C69.6836 34.51 75.4507 34.7629 75.4507 34.7629H92C91.2478 35.2687 86.4836 43.362 83.2239 48.9262C80.2149 53.9846 76.7045 58.79 71.1881 58.79C70.6866 58.79 70.1851 58.5371 69.4328 58.5371Z" fill="#1761A5"/>
</svg>
