<svg width="100" height="100" viewBox="0 0 100 100" fill="none" xmlns="http://www.w3.org/2000/svg">
<rect width="100" height="100" rx="50" fill="black"/>
<rect x="47.5568" y="36" width="1.51204" height="28.7287" fill="white"/>
<path d="M6 44.6005C6 43.5844 6.20564 42.6953 6.61691 41.9332C7.02819 41.1591 7.59066 40.5603 8.30434 40.1369C9.03012 39.7136 9.83453 39.5019 10.7176 39.5019C11.5885 39.5019 12.3445 39.6894 12.9856 40.0644C13.6267 40.4393 14.1045 40.9111 14.419 41.4796V39.6652H16.0883V49.6083H14.419V47.7576C14.0924 48.3382 13.6025 48.8221 12.9493 49.2092C12.3082 49.5841 11.5582 49.7716 10.6994 49.7716C9.81638 49.7716 9.01803 49.5539 8.30434 49.1184C7.59066 48.683 7.02819 48.0721 6.61691 47.2858C6.20564 46.4996 6 45.6045 6 44.6005ZM14.419 44.6186C14.419 43.8686 14.2678 43.2154 13.9654 42.659C13.663 42.1026 13.2517 41.6792 12.7316 41.3889C12.2235 41.0865 11.6611 40.9353 11.0442 40.9353C10.4272 40.9353 9.86477 41.0804 9.35672 41.3708C8.84868 41.6611 8.44345 42.0844 8.14104 42.6409C7.83864 43.1973 7.68743 43.8505 7.68743 44.6005C7.68743 45.3625 7.83864 46.0278 8.14104 46.5964C8.44345 47.1528 8.84868 47.5822 9.35672 47.8846C9.86477 48.1749 10.4272 48.3201 11.0442 48.3201C11.6611 48.3201 12.2235 48.1749 12.7316 47.8846C13.2517 47.5822 13.663 47.1528 13.9654 46.5964C14.2678 46.0278 14.419 45.3686 14.419 44.6186Z" fill="white"/>
<path d="M20.5297 41.28C20.82 40.7115 21.2313 40.27 21.7636 39.9555C22.3079 39.641 22.9671 39.4837 23.7413 39.4837V41.1893H23.3058C21.4551 41.1893 20.5297 42.1933 20.5297 44.2013V49.6083H18.8786V39.6652H20.5297V41.28Z" fill="white"/>
<path d="M26.5001 38.2499C26.1856 38.2499 25.9195 38.141 25.7017 37.9233C25.484 37.7056 25.3751 37.4395 25.3751 37.125C25.3751 36.8105 25.484 36.5443 25.7017 36.3266C25.9195 36.1089 26.1856 36 26.5001 36C26.8025 36 27.0565 36.1089 27.2622 36.3266C27.4799 36.5443 27.5888 36.8105 27.5888 37.125C27.5888 37.4395 27.4799 37.7056 27.2622 37.9233C27.0565 38.141 26.8025 38.2499 26.5001 38.2499ZM27.2985 39.8648V49.6083H25.6473V39.8648H27.2985Z" fill="white"/>
<path d="M34.1588 41.026H32.0721V49.6083H30.421V41.026H29.1327V39.6652H30.421V38.9575C30.421 37.8447 30.7053 37.0342 31.2738 36.5262C31.8544 36.006 32.6784 36 33.9485 36V37.512C33.116 37.5604 33.1925 37.512 32.5076 37.5604C32.2173 37.8386 32.0721 38.3043 32.0721 38.9575V39.6652H34.1588V41.026Z" fill="white"/>
<path d="M44.9021 39.6652V49.6083H43.251V48.1386C42.9365 48.6467 42.495 49.0459 41.9264 49.3362C41.37 49.6144 40.7531 49.7535 40.0757 49.7535C39.3015 49.7535 38.606 49.5962 37.9891 49.2817C37.3722 48.9551 36.8823 48.4713 36.5194 47.8302C36.1686 47.1891 35.9932 46.4089 35.9932 45.4895V39.6652H37.6262V45.2718C37.6262 46.2516 37.8742 47.0076 38.3701 47.5399C38.8661 48.06 39.5435 48.3201 40.4023 48.3201C41.2853 48.3201 41.9809 48.0479 42.4889 47.5036C42.9969 46.9592 43.251 46.1669 43.251 45.1267V39.6652H44.9021Z" fill="white"/>
<path d="M55.4981 64.892C54.736 64.892 54.0525 64.765 53.4477 64.511C52.8429 64.2449 52.3651 63.882 52.0143 63.4223C51.6635 62.9505 51.47 62.4123 51.4337 61.8074H53.1393C53.1877 62.3034 53.4175 62.7086 53.8288 63.0231C54.2521 63.3376 54.8025 63.4949 55.4799 63.4949C56.1089 63.4949 56.6049 63.3558 56.9678 63.0776C57.3306 62.7993 57.5121 62.4486 57.5121 62.0252C57.5121 61.5897 57.3185 61.2692 56.9315 61.0635C56.5444 60.8458 55.9456 60.6341 55.1352 60.4285C54.3973 60.2349 53.7925 60.0414 53.3207 59.8478C52.8611 59.6422 52.4619 59.3459 52.1232 58.9588C51.7966 58.5596 51.6333 58.0395 51.6333 57.3983C51.6333 56.8903 51.7845 56.4246 52.0869 56.0012C52.3893 55.5779 52.8187 55.2452 53.3752 55.0033C53.9316 54.7493 54.5666 54.6222 55.2803 54.6222C56.3811 54.6222 57.2702 54.9005 57.9476 55.4569C58.6249 56.0133 58.9878 56.7754 59.0362 57.7431H57.3851C57.3488 57.223 57.1371 56.8056 56.75 56.4911C56.375 56.1766 55.867 56.0194 55.2259 56.0194C54.6332 56.0194 54.1614 56.1464 53.8106 56.4004C53.4598 56.6544 53.2844 56.9871 53.2844 57.3983C53.2844 57.7249 53.3872 57.9971 53.5929 58.2148C53.8106 58.4205 54.0767 58.5898 54.3912 58.7229C54.7178 58.8439 55.1654 58.983 55.7339 59.1402C56.4476 59.3338 57.0282 59.5273 57.4758 59.7208C57.9234 59.9023 58.3044 60.1805 58.6189 60.5555C58.9455 60.9305 59.1148 61.4204 59.1269 62.0252C59.1269 62.5695 58.9757 63.0594 58.6733 63.4949C58.3709 63.9303 57.9415 64.2751 57.3851 64.5291C56.8407 64.771 56.2117 64.892 55.4981 64.892Z" fill="white"/>
<path d="M63.1089 51.3018V64.7287H61.4578V51.3018H63.1089Z" fill="white"/>
<path d="M65.3061 59.7208C65.3061 58.7047 65.5118 57.8157 65.923 57.0536C66.3343 56.2794 66.8968 55.6807 67.6105 55.2573C68.3362 54.8339 69.1406 54.6222 70.0237 54.6222C70.8946 54.6222 71.6506 54.8097 72.2917 55.1847C72.9328 55.5597 73.4106 56.0315 73.7251 56.6V54.7855H75.3944V64.7287H73.7251V62.878C73.3985 63.4586 72.9086 63.9424 72.2554 64.3295C71.6143 64.7045 70.8644 64.892 70.0055 64.892C69.1225 64.892 68.3241 64.6743 67.6105 64.2388C66.8968 63.8033 66.3343 63.1925 65.923 62.4062C65.5118 61.62 65.3061 60.7248 65.3061 59.7208ZM73.7251 59.739C73.7251 58.989 73.5739 58.3358 73.2715 57.7794C72.9691 57.223 72.5578 56.7996 72.0377 56.5093C71.5297 56.2069 70.9672 56.0557 70.3503 56.0557C69.7334 56.0557 69.1709 56.2008 68.6628 56.4911C68.1548 56.7814 67.7496 57.2048 67.4472 57.7612C67.1448 58.3177 66.9936 58.9709 66.9936 59.7208C66.9936 60.4829 67.1448 61.1482 67.4472 61.7167C67.7496 62.2732 68.1548 62.7026 68.6628 63.005C69.1709 63.2953 69.7334 63.4404 70.3503 63.4404C70.9672 63.4404 71.5297 63.2953 72.0377 63.005C72.5578 62.7026 72.9691 62.2732 73.2715 61.7167C73.5739 61.1482 73.7251 60.489 73.7251 59.739Z" fill="white"/>
<path d="M90.1419 54.6041C90.9161 54.6041 91.6055 54.7674 92.2104 55.094C92.8152 55.4085 93.293 55.8863 93.6438 56.5274C93.9946 57.1685 94.17 57.9487 94.17 58.868V64.7287H92.537V59.1039C92.537 58.112 92.289 57.356 91.793 56.8359C91.3092 56.3036 90.6499 56.0375 89.8153 56.0375C88.9565 56.0375 88.273 56.3157 87.765 56.8722C87.2569 57.4165 87.0029 58.2088 87.0029 59.2491V64.7287H85.3699V59.1039C85.3699 58.112 85.1219 57.356 84.626 56.8359C84.1421 56.3036 83.4829 56.0375 82.6482 56.0375C81.7894 56.0375 81.106 56.3157 80.5979 56.8722C80.0899 57.4165 79.8358 58.2088 79.8358 59.2491V64.7287H78.1847V54.7855H79.8358V56.219C80.1624 55.6988 80.5979 55.2996 81.1423 55.0214C81.6987 54.7432 82.3095 54.6041 82.9748 54.6041C83.8095 54.6041 84.5474 54.7916 85.1885 55.1666C85.8296 55.5416 86.3074 56.0919 86.6219 56.8177C86.9001 56.1161 87.3597 55.5718 88.0009 55.1847C88.642 54.7976 89.3556 54.6041 90.1419 54.6041Z" fill="white"/>
</svg>
