<svg width="500" height="500" viewBox="0 0 500 500" fill="none" xmlns="http://www.w3.org/2000/svg">
<rect width="500" height="500" rx="250" fill="black"/>
<rect x="237.784" y="180" width="7.56019" height="143.644" fill="white"/>
<path d="M30 223.002C30 217.922 31.0282 213.477 33.0846 209.666C35.1409 205.795 37.9533 202.802 41.5217 200.685C45.1506 198.568 49.1726 197.509 53.5878 197.509C57.9424 197.509 61.7225 198.447 64.9281 200.322C68.1336 202.197 70.5226 204.555 72.0951 207.398V198.326H80.4416V248.042H72.0951V238.788C70.4621 241.691 68.0126 244.11 64.7466 246.046C61.5411 247.921 57.7912 248.858 53.4971 248.858C49.0819 248.858 45.0901 247.77 41.5217 245.592C37.9533 243.415 35.1409 240.361 33.0846 236.429C31.0282 232.498 30 228.022 30 223.002ZM72.0951 223.093C72.0951 219.343 71.3391 216.077 69.8271 213.295C68.315 210.513 66.2587 208.396 63.658 206.945C61.1177 205.432 58.3053 204.676 55.2208 204.676C52.1362 204.676 49.3238 205.402 46.7836 206.854C44.2434 208.305 42.2173 210.422 40.7052 213.204C39.1932 215.986 38.4372 219.252 38.4372 223.002C38.4372 226.813 39.1932 230.139 40.7052 232.982C42.2173 235.764 44.2434 237.911 46.7836 239.423C49.3238 240.875 52.1362 241.6 55.2208 241.6C58.3053 241.6 61.1177 240.875 63.658 239.423C66.2587 237.911 68.315 235.764 69.8271 232.982C71.3391 230.139 72.0951 226.843 72.0951 223.093Z" fill="white"/>
<path d="M102.649 206.4C104.1 203.558 106.157 201.35 108.818 199.777C111.539 198.205 114.836 197.419 118.706 197.419V205.947H116.529C107.275 205.947 102.649 210.967 102.649 221.006V248.042H94.3929V198.326H102.649V206.4Z" fill="white"/>
<path d="M132.501 191.25C130.928 191.25 129.597 190.705 128.509 189.617C127.42 188.528 126.876 187.197 126.876 185.625C126.876 184.052 127.42 182.722 128.509 181.633C129.597 180.544 130.928 180 132.501 180C134.013 180 135.283 180.544 136.311 181.633C137.4 182.722 137.944 184.052 137.944 185.625C137.944 187.197 137.4 188.528 136.311 189.617C135.283 190.705 134.013 191.25 132.501 191.25ZM136.492 199.324V248.042H128.237V199.324H136.492Z" fill="white"/>
<path d="M170.794 205.13H160.361V248.042H152.105V205.13H145.664V198.326H152.105V194.788C152.105 189.223 153.526 185.171 156.369 182.631C159.272 180.03 163.392 180 169.743 180V187.56C165.58 187.802 165.962 187.56 162.538 187.802C161.087 189.193 160.361 191.522 160.361 194.788V198.326H170.794V205.13Z" fill="white"/>
<path d="M224.511 198.326V248.042H216.255V240.693C214.682 243.233 212.475 245.229 209.632 246.681C206.85 248.072 203.765 248.767 200.378 248.767C196.508 248.767 193.03 247.981 189.945 246.409C186.861 244.776 184.411 242.356 182.597 239.151C180.843 235.945 179.966 232.044 179.966 227.448V198.326H188.131V226.359C188.131 231.258 189.371 235.038 191.851 237.699C194.33 240.3 197.717 241.6 202.011 241.6C206.427 241.6 209.904 240.24 212.445 237.518C214.985 234.796 216.255 230.835 216.255 225.633V198.326H224.511Z" fill="white"/>
<path d="M277.49 324.46C273.68 324.46 270.263 323.825 267.239 322.555C264.215 321.224 261.826 319.41 260.072 317.111C258.318 314.753 257.35 312.061 257.168 309.037H265.696C265.938 311.517 267.087 313.543 269.144 315.116C271.261 316.688 274.013 317.474 277.4 317.474C280.545 317.474 283.024 316.779 284.839 315.388C286.653 313.997 287.56 312.243 287.56 310.126C287.56 307.949 286.593 306.346 284.657 305.318C282.722 304.229 279.728 303.17 275.676 302.142C271.986 301.175 268.962 300.207 266.604 299.239C264.305 298.211 262.309 296.729 260.616 294.794C258.983 292.798 258.166 290.197 258.166 286.992C258.166 284.451 258.922 282.123 260.434 280.006C261.946 277.889 264.094 276.226 266.876 275.016C269.658 273.746 272.833 273.111 276.402 273.111C281.905 273.111 286.351 274.502 289.738 277.284C293.125 280.067 294.939 283.877 295.181 288.715H286.925C286.744 286.115 285.685 284.028 283.75 282.456C281.875 280.883 279.335 280.097 276.129 280.097C273.166 280.097 270.807 280.732 269.053 282.002C267.299 283.272 266.422 284.935 266.422 286.992C266.422 288.625 266.936 289.986 267.964 291.074C269.053 292.102 270.384 292.949 271.956 293.614C273.589 294.219 275.827 294.915 278.67 295.701C282.238 296.669 285.141 297.636 287.379 298.604C289.617 299.511 291.522 300.902 293.094 302.777C294.727 304.652 295.574 307.102 295.635 310.126C295.635 312.848 294.879 315.297 293.367 317.474C291.855 319.652 289.708 321.375 286.925 322.646C284.204 323.855 281.059 324.46 277.49 324.46Z" fill="white"/>
<path d="M315.545 256.509V323.643H307.289V256.509H315.545Z" fill="white"/>
<path d="M326.531 298.604C326.531 293.524 327.559 289.078 329.615 285.268C331.671 281.397 334.484 278.403 338.052 276.286C341.681 274.17 345.703 273.111 350.118 273.111C354.473 273.111 358.253 274.049 361.459 275.924C364.664 277.799 367.053 280.157 368.626 283V273.928H376.972V323.643H368.626V314.39C366.993 317.293 364.543 319.712 361.277 321.648C358.072 323.523 354.322 324.46 350.028 324.46C345.612 324.46 341.621 323.371 338.052 321.194C334.484 319.017 331.671 315.962 329.615 312.031C327.559 308.1 326.531 303.624 326.531 298.604ZM368.626 298.695C368.626 294.945 367.87 291.679 366.358 288.897C364.846 286.115 362.789 283.998 360.189 282.546C357.648 281.034 354.836 280.278 351.751 280.278C348.667 280.278 345.854 281.004 343.314 282.456C340.774 283.907 338.748 286.024 337.236 288.806C335.724 291.588 334.968 294.854 334.968 298.604C334.968 302.414 335.724 305.741 337.236 308.584C338.748 311.366 340.774 313.513 343.314 315.025C345.854 316.476 348.667 317.202 351.751 317.202C354.836 317.202 357.648 316.476 360.189 315.025C362.789 313.513 364.846 311.366 366.358 308.584C367.87 305.741 368.626 302.445 368.626 298.695Z" fill="white"/>
<path d="M450.709 273.02C454.58 273.02 458.028 273.837 461.052 275.47C464.076 277.042 466.465 279.432 468.219 282.637C469.973 285.843 470.85 289.744 470.85 294.34V323.643H462.685V295.52C462.685 290.56 461.445 286.78 458.965 284.179C456.546 281.518 453.25 280.188 449.076 280.188C444.782 280.188 441.365 281.579 438.825 284.361C436.285 287.082 435.014 291.044 435.014 296.245V323.643H426.85V295.52C426.85 290.56 425.61 286.78 423.13 284.179C420.711 281.518 417.414 280.188 413.241 280.188C408.947 280.188 405.53 281.579 402.99 284.361C400.449 287.082 399.179 291.044 399.179 296.245V323.643H390.924V273.928H399.179V281.095C400.812 278.494 402.99 276.498 405.711 275.107C408.493 273.716 411.548 273.02 414.874 273.02C419.047 273.02 422.737 273.958 425.942 275.833C429.148 277.708 431.537 280.46 433.109 284.089C434.5 280.581 436.799 277.859 440.004 275.924C443.21 273.988 446.778 273.02 450.709 273.02Z" fill="white"/>
</svg>
